%TF.GenerationSoftware,KiCad,Pcbnew,9.0.6*%
%TF.CreationDate,2025-11-18T20:58:22+00:00*%
%TF.ProjectId,pathfinderKey-Cuts,70617468-6669-46e6-9465-724b65792d43,rev?*%
%TF.SameCoordinates,Original*%
%TF.FileFunction,Copper,L2,Bot*%
%TF.FilePolarity,Positive*%
%FSLAX46Y46*%
G04 Gerber Fmt 4.6, Leading zero omitted, Abs format (unit mm)*
G04 Created by KiCad (PCBNEW 9.0.6) date 2025-11-18 20:58:22*
%MOMM*%
%LPD*%
G01*
G04 APERTURE LIST*
%TA.AperFunction,ComponentPad*%
%ADD10C,1.400000*%
%TD*%
%TA.AperFunction,ComponentPad*%
%ADD11C,2.200000*%
%TD*%
%TA.AperFunction,ComponentPad*%
%ADD12C,1.815000*%
%TD*%
%TA.AperFunction,ComponentPad*%
%ADD13R,1.815000X1.815000*%
%TD*%
%TA.AperFunction,ComponentPad*%
%ADD14C,1.524000*%
%TD*%
%TA.AperFunction,Conductor*%
%ADD15C,0.200000*%
%TD*%
G04 APERTURE END LIST*
D10*
%TO.P,R2,1*%
%TO.N,Net-(D2-PadA)*%
X154500000Y-84420000D03*
%TO.P,R2,2*%
%TO.N,LED2*%
X154500000Y-89500000D03*
%TD*%
%TO.P,R3,1*%
%TO.N,Net-(D3-PadA)*%
X178580000Y-114420000D03*
%TO.P,R3,2*%
%TO.N,LED3*%
X178580000Y-119500000D03*
%TD*%
D11*
%TO.P,SW1,1,1*%
%TO.N,button1*%
X187540000Y-96420000D03*
%TO.P,SW1,2,2*%
%TO.N,GND*%
X181190000Y-98960000D03*
%TD*%
D12*
%TO.P,D2,A*%
%TO.N,Net-(D2-PadA)*%
X161770000Y-87000000D03*
D13*
%TO.P,D2,C*%
%TO.N,GND*%
X159230000Y-87000000D03*
%TD*%
D11*
%TO.P,SW3,1,1*%
%TO.N,button3*%
X187540000Y-126420000D03*
%TO.P,SW3,2,2*%
%TO.N,GND*%
X181190000Y-128960000D03*
%TD*%
%TO.P,SW4,1,1*%
%TO.N,button4*%
X163369000Y-126420000D03*
%TO.P,SW4,2,2*%
%TO.N,GND*%
X157019000Y-128960000D03*
%TD*%
D10*
%TO.P,R1,1*%
%TO.N,Net-(D1-PadA)*%
X178580000Y-83920000D03*
%TO.P,R1,2*%
%TO.N,LED1*%
X178580000Y-89000000D03*
%TD*%
D12*
%TO.P,D4,A*%
%TO.N,Net-(D4-PadA)*%
X161770000Y-117000000D03*
D13*
%TO.P,D4,C*%
%TO.N,GND*%
X159230000Y-117000000D03*
%TD*%
D11*
%TO.P,SW2,1,1*%
%TO.N,button2*%
X163369000Y-96420000D03*
%TO.P,SW2,2,2*%
%TO.N,GND*%
X157019000Y-98960000D03*
%TD*%
D14*
%TO.P,U1,1,GPIO26/ADC0/A0*%
%TO.N,button1*%
X127260000Y-122880000D03*
%TO.P,U1,2,GPIO27/ADC1/A1*%
%TO.N,button2*%
X127260000Y-125420000D03*
%TO.P,U1,3,GPIO28/ADC2/A2*%
%TO.N,button3*%
X127260000Y-127960000D03*
%TO.P,U1,4,GPIO29/ADC3/A3*%
%TO.N,button4*%
X127260000Y-130500000D03*
%TO.P,U1,5,GPIO6/SDA*%
%TO.N,LED1*%
X127260000Y-133040000D03*
%TO.P,U1,6,GPIO7/SCL*%
%TO.N,LED2*%
X127260000Y-135580000D03*
%TO.P,U1,7,GPIO0/TX*%
%TO.N,LED3*%
X127260000Y-138120000D03*
%TO.P,U1,8,GPIO1/RX*%
%TO.N,LED4*%
X142500000Y-138120000D03*
%TO.P,U1,9,GPIO2/SCK*%
%TO.N,unconnected-(U1-GPIO2{slash}SCK-Pad9)*%
X142500000Y-135580000D03*
%TO.P,U1,10,GPIO4/MISO*%
%TO.N,unconnected-(U1-GPIO4{slash}MISO-Pad10)*%
X142500000Y-133040000D03*
%TO.P,U1,11,GPIO3/MOSI*%
%TO.N,unconnected-(U1-GPIO3{slash}MOSI-Pad11)*%
X142500000Y-130500000D03*
%TO.P,U1,12,3V3*%
%TO.N,unconnected-(U1-3V3-Pad12)*%
X142500000Y-127960000D03*
%TO.P,U1,13,GND*%
%TO.N,GND*%
X142500000Y-125420000D03*
%TO.P,U1,14,VBUS*%
%TO.N,unconnected-(U1-VBUS-Pad14)*%
X142500000Y-122880000D03*
%TD*%
D12*
%TO.P,D3,A*%
%TO.N,Net-(D3-PadA)*%
X186080000Y-117000000D03*
D13*
%TO.P,D3,C*%
%TO.N,GND*%
X183540000Y-117000000D03*
%TD*%
D10*
%TO.P,R4,1*%
%TO.N,Net-(D4-PadA)*%
X154000000Y-114460000D03*
%TO.P,R4,2*%
%TO.N,LED4*%
X154000000Y-119540000D03*
%TD*%
D12*
%TO.P,D1,A*%
%TO.N,Net-(D1-PadA)*%
X186080000Y-87000000D03*
D13*
%TO.P,D1,C*%
%TO.N,GND*%
X183540000Y-87000000D03*
%TD*%
D15*
%TO.N,LED1*%
X129000000Y-145000000D02*
X122500000Y-138500000D01*
X193000000Y-99898686D02*
X193000000Y-109180000D01*
X193836000Y-145000000D02*
X129000000Y-145000000D01*
X122500000Y-133000000D02*
X122540000Y-133040000D01*
X196088000Y-142748000D02*
X193836000Y-145000000D01*
X196088000Y-114300000D02*
X196088000Y-142748000D01*
X182101314Y-89000000D02*
X193000000Y-99898686D01*
X178580000Y-89000000D02*
X182101314Y-89000000D01*
X122500000Y-138500000D02*
X122500000Y-133000000D01*
X122540000Y-133040000D02*
X127260000Y-133040000D01*
X193000000Y-109180000D02*
X197104000Y-113284000D01*
X197104000Y-113284000D02*
X196088000Y-114300000D01*
%TO.N,LED2*%
X124500000Y-137500000D02*
X124500000Y-135500000D01*
X130000000Y-143000000D02*
X124500000Y-137500000D01*
X188000000Y-111800000D02*
X189992000Y-113792000D01*
X124580000Y-135580000D02*
X127260000Y-135580000D01*
X189992000Y-118364000D02*
X189957000Y-118364000D01*
X188941000Y-119380000D02*
X188941000Y-122393000D01*
X189992000Y-113792000D02*
X189992000Y-118364000D01*
X188941000Y-122393000D02*
X192532000Y-125984000D01*
X158500000Y-93500000D02*
X181500000Y-93500000D01*
X189957000Y-118364000D02*
X188941000Y-119380000D01*
X181500000Y-93500000D02*
X188000000Y-100000000D01*
X188000000Y-100000000D02*
X188000000Y-111800000D01*
X192532000Y-125984000D02*
X192532000Y-140716000D01*
X154500000Y-89500000D02*
X158500000Y-93500000D01*
X124500000Y-135500000D02*
X124580000Y-135580000D01*
X190248000Y-143000000D02*
X130000000Y-143000000D01*
X192532000Y-140716000D02*
X190248000Y-143000000D01*
%TO.N,LED3*%
X178580000Y-119500000D02*
X178500000Y-119580000D01*
X178500000Y-119580000D02*
X178500000Y-141500000D01*
X130640000Y-141500000D02*
X127260000Y-138120000D01*
X178500000Y-141500000D02*
X130640000Y-141500000D01*
%TO.N,button1*%
X142556000Y-115000000D02*
X145288000Y-112268000D01*
X164500000Y-90000000D02*
X164500000Y-82500000D01*
X124000000Y-123000000D02*
X124000000Y-118000000D01*
X127260000Y-122880000D02*
X124120000Y-122880000D01*
X164500000Y-82500000D02*
X151500000Y-82500000D01*
X124120000Y-122880000D02*
X124000000Y-123000000D01*
X166000000Y-91500000D02*
X182620000Y-91500000D01*
X145288000Y-112268000D02*
X151500000Y-112268000D01*
X124000000Y-118000000D02*
X127000000Y-115000000D01*
X151500000Y-82500000D02*
X151500000Y-112268000D01*
X182620000Y-91500000D02*
X187540000Y-96420000D01*
X166000000Y-91500000D02*
X164500000Y-90000000D01*
X127000000Y-115000000D02*
X142556000Y-115000000D01*
%TO.N,button2*%
X129500000Y-118500000D02*
X129500000Y-123180000D01*
X162580000Y-96420000D02*
X156000000Y-103000000D01*
X156000000Y-103000000D02*
X156000000Y-114000000D01*
X163369000Y-96420000D02*
X162580000Y-96420000D01*
X149860000Y-119888000D02*
X151748000Y-118000000D01*
X151748000Y-118000000D02*
X152000000Y-118000000D01*
X145288000Y-119888000D02*
X149860000Y-119888000D01*
X130000000Y-118000000D02*
X129500000Y-118500000D01*
X156000000Y-114000000D02*
X152000000Y-118000000D01*
X129500000Y-123180000D02*
X127260000Y-125420000D01*
X130000000Y-118000000D02*
X143400000Y-118000000D01*
X143400000Y-118000000D02*
X145288000Y-119888000D01*
%TO.N,button3*%
X149772000Y-121500000D02*
X152772000Y-118500000D01*
X133720000Y-121500000D02*
X149772000Y-121500000D01*
X171000000Y-121000000D02*
X173501000Y-118499000D01*
X152772000Y-118500000D02*
X156500000Y-118500000D01*
X127260000Y-127960000D02*
X133720000Y-121500000D01*
X184999000Y-118499000D02*
X187540000Y-121040000D01*
X187540000Y-121040000D02*
X187540000Y-126420000D01*
X173501000Y-118499000D02*
X184999000Y-118499000D01*
X156500000Y-118500000D02*
X159000000Y-121000000D01*
X159000000Y-121000000D02*
X171000000Y-121000000D01*
%TO.N,LED4*%
X154000000Y-119540000D02*
X154000000Y-136000000D01*
X151880000Y-138120000D02*
X142500000Y-138120000D01*
X154000000Y-136000000D02*
X151880000Y-138120000D01*
%TO.N,button4*%
X131500000Y-140000000D02*
X131500000Y-134740000D01*
X163369000Y-126420000D02*
X163369000Y-138131000D01*
X131500000Y-134740000D02*
X127260000Y-130500000D01*
X161500000Y-140000000D02*
X131500000Y-140000000D01*
X163369000Y-138131000D02*
X161500000Y-140000000D01*
%TD*%
M02*
