%TF.GenerationSoftware,KiCad,Pcbnew,9.0.6*%
%TF.CreationDate,2025-11-18T20:58:22+00:00*%
%TF.ProjectId,pathfinderKey-Cuts,70617468-6669-46e6-9465-724b65792d43,rev?*%
%TF.SameCoordinates,Original*%
%TF.FileFunction,Profile,NP*%
%FSLAX46Y46*%
G04 Gerber Fmt 4.6, Leading zero omitted, Abs format (unit mm)*
G04 Created by KiCad (PCBNEW 9.0.6) date 2025-11-18 20:58:22*
%MOMM*%
%LPD*%
G01*
G04 APERTURE LIST*
%TA.AperFunction,Profile*%
%ADD10C,0.050000*%
%TD*%
G04 APERTURE END LIST*
D10*
X195500000Y-78000001D02*
G75*
G02*
X199999999Y-82500001I0J-4499999D01*
G01*
X200000000Y-140000000D02*
X200000000Y-143500000D01*
X144000000Y-109000000D02*
G75*
G02*
X139500001Y-113500000I-4500000J0D01*
G01*
X144000000Y-82500000D02*
G75*
G02*
X148499999Y-78000000I4500000J0D01*
G01*
X200000000Y-82500001D02*
X200000000Y-85000000D01*
X195500000Y-78000001D02*
X148500000Y-78000001D01*
X123500000Y-113500000D02*
X139500000Y-113499999D01*
X123500000Y-149000000D02*
G75*
G02*
X119000000Y-144500000I0J4500000D01*
G01*
X148631965Y-81500000D02*
G75*
G02*
X146131965Y-81500000I-1250000J0D01*
G01*
X146131965Y-81500000D02*
G75*
G02*
X148631965Y-81500000I1250000J0D01*
G01*
X148631965Y-116500000D02*
G75*
G02*
X146131965Y-116500000I-1250000J0D01*
G01*
X146131965Y-116500000D02*
G75*
G02*
X148631965Y-116500000I1250000J0D01*
G01*
X123250000Y-116500000D02*
G75*
G02*
X120750000Y-116500000I-1250000J0D01*
G01*
X120750000Y-116500000D02*
G75*
G02*
X123250000Y-116500000I1250000J0D01*
G01*
X123250000Y-145000000D02*
G75*
G02*
X120750000Y-145000000I-1250000J0D01*
G01*
X120750000Y-145000000D02*
G75*
G02*
X123250000Y-145000000I1250000J0D01*
G01*
X200000000Y-143500000D02*
X200000000Y-144500000D01*
X119000000Y-118000000D02*
G75*
G02*
X123500000Y-113500000I4500000J0D01*
G01*
X200000000Y-144500000D02*
G75*
G02*
X195500000Y-149000000I-4500000J0D01*
G01*
X123500000Y-149000000D02*
X195500000Y-149000000D01*
X198250000Y-81500000D02*
G75*
G02*
X195750000Y-81500000I-1250000J0D01*
G01*
X195750000Y-81500000D02*
G75*
G02*
X198250000Y-81500000I1250000J0D01*
G01*
X119000000Y-144500000D02*
X119000000Y-118000000D01*
X144000000Y-109000001D02*
X144000000Y-82500000D01*
X198250000Y-145000000D02*
G75*
G02*
X195750000Y-145000000I-1250000J0D01*
G01*
X195750000Y-145000000D02*
G75*
G02*
X198250000Y-145000000I1250000J0D01*
G01*
X200000000Y-140000000D02*
X200000000Y-85000000D01*
M02*
