%TF.GenerationSoftware,KiCad,Pcbnew,9.0.6*%
%TF.CreationDate,2025-11-18T20:58:22+00:00*%
%TF.ProjectId,pathfinderKey-Cuts,70617468-6669-46e6-9465-724b65792d43,rev?*%
%TF.SameCoordinates,Original*%
%TF.FileFunction,Copper,L1,Top*%
%TF.FilePolarity,Positive*%
%FSLAX46Y46*%
G04 Gerber Fmt 4.6, Leading zero omitted, Abs format (unit mm)*
G04 Created by KiCad (PCBNEW 9.0.6) date 2025-11-18 20:58:22*
%MOMM*%
%LPD*%
G01*
G04 APERTURE LIST*
G04 Aperture macros list*
%AMRoundRect*
0 Rectangle with rounded corners*
0 $1 Rounding radius*
0 $2 $3 $4 $5 $6 $7 $8 $9 X,Y pos of 4 corners*
0 Add a 4 corners polygon primitive as box body*
4,1,4,$2,$3,$4,$5,$6,$7,$8,$9,$2,$3,0*
0 Add four circle primitives for the rounded corners*
1,1,$1+$1,$2,$3*
1,1,$1+$1,$4,$5*
1,1,$1+$1,$6,$7*
1,1,$1+$1,$8,$9*
0 Add four rect primitives between the rounded corners*
20,1,$1+$1,$2,$3,$4,$5,0*
20,1,$1+$1,$4,$5,$6,$7,0*
20,1,$1+$1,$6,$7,$8,$9,0*
20,1,$1+$1,$8,$9,$2,$3,0*%
G04 Aperture macros list end*
%TA.AperFunction,ComponentPad*%
%ADD10C,1.400000*%
%TD*%
%TA.AperFunction,ComponentPad*%
%ADD11C,2.200000*%
%TD*%
%TA.AperFunction,ComponentPad*%
%ADD12C,1.815000*%
%TD*%
%TA.AperFunction,ComponentPad*%
%ADD13R,1.815000X1.815000*%
%TD*%
%TA.AperFunction,SMDPad,CuDef*%
%ADD14RoundRect,0.152400X1.063600X0.609600X-1.063600X0.609600X-1.063600X-0.609600X1.063600X-0.609600X0*%
%TD*%
%TA.AperFunction,ComponentPad*%
%ADD15C,1.524000*%
%TD*%
%TA.AperFunction,SMDPad,CuDef*%
%ADD16RoundRect,0.152400X-1.063600X-0.609600X1.063600X-0.609600X1.063600X0.609600X-1.063600X0.609600X0*%
%TD*%
%TA.AperFunction,Conductor*%
%ADD17C,0.200000*%
%TD*%
G04 APERTURE END LIST*
D10*
%TO.P,R2,1*%
%TO.N,Net-(D2-PadA)*%
X154500000Y-84420000D03*
%TO.P,R2,2*%
%TO.N,LED2*%
X154500000Y-89500000D03*
%TD*%
%TO.P,R3,1*%
%TO.N,Net-(D3-PadA)*%
X178580000Y-114420000D03*
%TO.P,R3,2*%
%TO.N,LED3*%
X178580000Y-119500000D03*
%TD*%
D11*
%TO.P,SW1,1,1*%
%TO.N,button1*%
X187540000Y-96420000D03*
%TO.P,SW1,2,2*%
%TO.N,GND*%
X181190000Y-98960000D03*
%TD*%
D12*
%TO.P,D2,A*%
%TO.N,Net-(D2-PadA)*%
X161770000Y-87000000D03*
D13*
%TO.P,D2,C*%
%TO.N,GND*%
X159230000Y-87000000D03*
%TD*%
D11*
%TO.P,SW3,1,1*%
%TO.N,button3*%
X187540000Y-126420000D03*
%TO.P,SW3,2,2*%
%TO.N,GND*%
X181190000Y-128960000D03*
%TD*%
%TO.P,SW4,1,1*%
%TO.N,button4*%
X163369000Y-126420000D03*
%TO.P,SW4,2,2*%
%TO.N,GND*%
X157019000Y-128960000D03*
%TD*%
D10*
%TO.P,R1,1*%
%TO.N,Net-(D1-PadA)*%
X178580000Y-83920000D03*
%TO.P,R1,2*%
%TO.N,LED1*%
X178580000Y-89000000D03*
%TD*%
D12*
%TO.P,D4,A*%
%TO.N,Net-(D4-PadA)*%
X161770000Y-117000000D03*
D13*
%TO.P,D4,C*%
%TO.N,GND*%
X159230000Y-117000000D03*
%TD*%
D11*
%TO.P,SW2,1,1*%
%TO.N,button2*%
X163369000Y-96420000D03*
%TO.P,SW2,2,2*%
%TO.N,GND*%
X157019000Y-98960000D03*
%TD*%
D14*
%TO.P,U1,1,GPIO26/ADC0/A0*%
%TO.N,button1*%
X126425000Y-122880000D03*
D15*
X127260000Y-122880000D03*
D14*
%TO.P,U1,2,GPIO27/ADC1/A1*%
%TO.N,button2*%
X126425000Y-125420000D03*
D15*
X127260000Y-125420000D03*
D14*
%TO.P,U1,3,GPIO28/ADC2/A2*%
%TO.N,button3*%
X126425000Y-127960000D03*
D15*
X127260000Y-127960000D03*
D14*
%TO.P,U1,4,GPIO29/ADC3/A3*%
%TO.N,button4*%
X126425000Y-130500000D03*
D15*
X127260000Y-130500000D03*
D14*
%TO.P,U1,5,GPIO6/SDA*%
%TO.N,LED1*%
X126425000Y-133040000D03*
D15*
X127260000Y-133040000D03*
D14*
%TO.P,U1,6,GPIO7/SCL*%
%TO.N,LED2*%
X126425000Y-135580000D03*
D15*
X127260000Y-135580000D03*
D14*
%TO.P,U1,7,GPIO0/TX*%
%TO.N,LED3*%
X126425000Y-138120000D03*
D15*
X127260000Y-138120000D03*
%TO.P,U1,8,GPIO1/RX*%
%TO.N,LED4*%
X142500000Y-138120000D03*
D16*
X143335000Y-138120000D03*
D15*
%TO.P,U1,9,GPIO2/SCK*%
%TO.N,unconnected-(U1-GPIO2{slash}SCK-Pad9)*%
X142500000Y-135580000D03*
D16*
X143335000Y-135580000D03*
D15*
%TO.P,U1,10,GPIO4/MISO*%
%TO.N,unconnected-(U1-GPIO4{slash}MISO-Pad10)*%
X142500000Y-133040000D03*
D16*
X143335000Y-133040000D03*
D15*
%TO.P,U1,11,GPIO3/MOSI*%
%TO.N,unconnected-(U1-GPIO3{slash}MOSI-Pad11)*%
X142500000Y-130500000D03*
D16*
X143335000Y-130500000D03*
D15*
%TO.P,U1,12,3V3*%
%TO.N,unconnected-(U1-3V3-Pad12)*%
X142500000Y-127960000D03*
D16*
X143335000Y-127960000D03*
D15*
%TO.P,U1,13,GND*%
%TO.N,GND*%
X142500000Y-125420000D03*
D16*
X143335000Y-125420000D03*
D15*
%TO.P,U1,14,VBUS*%
%TO.N,unconnected-(U1-VBUS-Pad14)*%
X142500000Y-122880000D03*
D16*
X143335000Y-122880000D03*
%TD*%
D12*
%TO.P,D3,A*%
%TO.N,Net-(D3-PadA)*%
X186080000Y-117000000D03*
D13*
%TO.P,D3,C*%
%TO.N,GND*%
X183540000Y-117000000D03*
%TD*%
D10*
%TO.P,R4,1*%
%TO.N,Net-(D4-PadA)*%
X154000000Y-114460000D03*
%TO.P,R4,2*%
%TO.N,LED4*%
X154000000Y-119540000D03*
%TD*%
D12*
%TO.P,D1,A*%
%TO.N,Net-(D1-PadA)*%
X186080000Y-87000000D03*
D13*
%TO.P,D1,C*%
%TO.N,GND*%
X183540000Y-87000000D03*
%TD*%
D17*
%TO.N,Net-(D1-PadA)*%
X178580000Y-83920000D02*
X183000000Y-83920000D01*
X183000000Y-83920000D02*
X186080000Y-87000000D01*
%TO.N,GND*%
X152999000Y-114874628D02*
X152999000Y-105948470D01*
X159230000Y-87000000D02*
X159230000Y-96749000D01*
X159230000Y-96749000D02*
X158989500Y-96989500D01*
X181190000Y-101928470D02*
X176500000Y-106618470D01*
X159230000Y-126749000D02*
X157019000Y-128960000D01*
X159230000Y-117000000D02*
X159230000Y-121000000D01*
X181190000Y-98960000D02*
X183540000Y-96610000D01*
X183540000Y-126610000D02*
X183540000Y-117000000D01*
X159230000Y-122000000D02*
X159230000Y-126749000D01*
X155124372Y-117000000D02*
X152999000Y-114874628D01*
X157019000Y-101928470D02*
X157019000Y-98960000D01*
X181190000Y-98960000D02*
X181190000Y-101928470D01*
X158989500Y-96989500D02*
X157019000Y-98960000D01*
X160960000Y-98960000D02*
X181190000Y-98960000D01*
X152999000Y-105948470D02*
X157019000Y-101928470D01*
X157019000Y-128960000D02*
X153479000Y-125420000D01*
X158989500Y-96989500D02*
X160960000Y-98960000D01*
X176500000Y-117000000D02*
X183540000Y-117000000D01*
X176500000Y-106618470D02*
X176500000Y-117000000D01*
X181190000Y-128960000D02*
X183540000Y-126610000D01*
X159230000Y-117000000D02*
X155124372Y-117000000D01*
X159230000Y-121000000D02*
X159230000Y-122000000D01*
X153479000Y-125420000D02*
X142500000Y-125420000D01*
X183540000Y-96610000D02*
X183540000Y-87000000D01*
%TO.N,Net-(D2-PadA)*%
X154500000Y-84420000D02*
X159190000Y-84420000D01*
X159190000Y-84420000D02*
X161770000Y-87000000D01*
%TO.N,Net-(D3-PadA)*%
X183500000Y-114420000D02*
X186080000Y-117000000D01*
X178580000Y-114420000D02*
X183500000Y-114420000D01*
%TO.N,Net-(D4-PadA)*%
X159230000Y-114460000D02*
X161770000Y-117000000D01*
X154000000Y-114460000D02*
X159230000Y-114460000D01*
%TD*%
M02*
