M48
; DRILL file {KiCad 9.0.6} date 2025-11-18T21:01:14+0000
; FORMAT={-:-/ absolute / metric / decimal}
; #@! TF.CreationDate,2025-11-18T21:01:14+00:00
; #@! TF.GenerationSoftware,Kicad,Pcbnew,9.0.6
; #@! TF.FileFunction,Plated,1,2,PTH
FMAT,2
METRIC
; #@! TA.AperFunction,Plated,PTH,ComponentDrill
T1C0.700
; #@! TA.AperFunction,Plated,PTH,ComponentDrill
T2C0.889
; #@! TA.AperFunction,Plated,PTH,ComponentDrill
T3C1.210
; #@! TA.AperFunction,Plated,PTH,ComponentDrill
T4C1.500
%
G90
G05
T1
X154.0Y-114.46
X154.0Y-119.54
X154.5Y-84.42
X154.5Y-89.5
X178.58Y-83.92
X178.58Y-89.0
X178.58Y-114.42
X178.58Y-119.5
T2
X127.26Y-122.88
X127.26Y-125.42
X127.26Y-127.96
X127.26Y-130.5
X127.26Y-133.04
X127.26Y-135.58
X127.26Y-138.12
X142.5Y-122.88
X142.5Y-125.42
X142.5Y-127.96
X142.5Y-130.5
X142.5Y-133.04
X142.5Y-135.58
X142.5Y-138.12
T3
X159.23Y-87.0
X159.23Y-117.0
X161.77Y-87.0
X161.77Y-117.0
X183.54Y-87.0
X183.54Y-117.0
X186.08Y-87.0
X186.08Y-117.0
T4
X157.019Y-98.96
X157.019Y-128.96
X163.369Y-96.42
X163.369Y-126.42
X181.19Y-98.96
X181.19Y-128.96
X187.54Y-96.42
X187.54Y-126.42
M30
